<svg height='100px' width='100px'  fill="#ffffff" xmlns="http://www.w3.org/2000/svg" xmlns:xlink="http://www.w3.org/1999/xlink" version="1.1" x="0px" y="0px" viewBox="0 0 64 64" style="enable-background:new 0 0 64 64;" xml:space="preserve"><path d="M38.48,26.06c0-3.58-2.91-6.48-6.48-6.48s-6.48,2.91-6.48,6.48c0,2.38,1.3,4.57,3.4,5.71l1.74,0.94h-3.7  c-2.35,0-4.27,1.84-4.36,4.19c0,0.14,0.07,0.27,0.18,0.34c0.88,0.52,1.6,1.28,2.06,2.2c0.06,0.13,0.19,0.21,0.33,0.21h13.66  c0.14,0,0.31-0.17,0.38-0.28l0.13-0.23c0.03-0.06,0.06-0.11,0.09-0.17c0.17-0.25,0.35-0.49,0.54-0.71c0.24-0.27,0.47-0.48,0.76-0.69  c0.05-0.04,0.11-0.07,0.18-0.12l0.32-0.21c0.11-0.07,0.17-0.2,0.17-0.33c-0.12-2.35-2.03-4.2-4.36-4.2l-3.7,0l1.74-0.94  C37.18,30.63,38.48,28.44,38.48,26.06z"></path><path d="M42.12,37.89c-1.03,0.47-1.86,1.36-2.26,2.42c-0.19,0.5-0.29,1.02-0.29,1.54v2.19c0,0.21,0.17,0.38,0.38,0.38h18.08  c0.21,0,0.38-0.17,0.38-0.38v-2.19c0-2.41-1.96-4.37-4.37-4.37h-3.7l1.74-0.94c2.1-1.13,3.4-3.32,3.4-5.71  c0-3.58-2.91-6.48-6.48-6.48s-6.48,2.91-6.48,6.48c0,2.38,1.3,4.57,3.4,5.71l1.74,0.94h-3.7C43.32,37.49,42.7,37.62,42.12,37.89z"></path><path d="M5.6,41.86v2.19c0,0.21,0.17,0.38,0.38,0.38h18.08c0.21,0,0.38-0.17,0.38-0.38v-2.19c0-0.52-0.1-1.04-0.29-1.54  c-0.4-1.07-1.22-1.95-2.26-2.42c-0.58-0.27-1.2-0.4-1.82-0.4h-3.7l1.74-0.94c2.1-1.13,3.4-3.32,3.4-5.71c0-3.58-2.91-6.48-6.48-6.48  s-6.48,2.91-6.48,6.48c0,2.38,1.3,4.57,3.4,5.71l1.74,0.94h-3.7C7.56,37.49,5.6,39.45,5.6,41.86z"></path></svg>