<svg height='100px' width='100px'  fill="#ffffff" xmlns="http://www.w3.org/2000/svg" xmlns:xlink="http://www.w3.org/1999/xlink" version="1.1" x="0px" y="0px" viewBox="0 0 100 100" enable-background="new 0 0 100 100" xml:space="preserve"><path d="M65.9,21.3c0,1-0.8,1.8-1.8,1.8H40.8c-1,0-1.8-0.8-1.8-1.8s0.8-1.8,1.8-1.8h23.3C65.1,19.6,65.9,20.3,65.9,21.3z M21.7,18.7  c-1.5,0-2.6,1.2-2.6,2.6c0,1.5,1.2,2.6,2.6,2.6s2.6-1.2,2.6-2.6C24.4,19.8,23.2,18.7,21.7,18.7z M40.8,42.7c-1,0-1.8,0.8-1.8,1.8  s0.8,1.8,1.8,1.8h23.3c1,0,1.8-0.8,1.8-1.8s-0.8-1.8-1.8-1.8H40.8z M19.1,44.4c0,1.5,1.2,2.6,2.6,2.6s2.6-1.2,2.6-2.6  c0-1.5-1.2-2.6-2.6-2.6S19.1,43,19.1,44.4z M7.6,56c-4-2.3-6.7-6.6-6.7-11.5c0-5,2.7-9.3,6.7-11.6c-4-2.3-6.7-6.6-6.7-11.5v-0.2  C0.9,13.9,6.8,8,14.1,8h55.1c7.3,0,13.2,5.9,13.2,13.2v0.2c0,4.9-2.7,9.2-6.7,11.5c4,2.3,6.7,6.6,6.7,11.5c0,1-0.8,1.8-1.8,1.8  s-1.8-0.7-1.8-1.7c0-5.5-4.4-9.9-9.8-9.9h-55c-5.4,0-9.8,4.4-9.8,9.8c0,5.5,4.4,9.9,9.8,9.9H56c1,0,1.8,0.8,1.8,1.8S57,57.7,56,57.7  H14.1c-5.4,0-9.8,4.4-9.8,9.8c0,5.5,4.4,9.9,9.8,9.9h37.7c1,0,1.8,0.8,1.8,1.8s-0.8,1.8-1.8,1.8H14.1c-7.3,0-13.3-5.9-13.3-13.3  C0.9,62.6,3.6,58.3,7.6,56z M14.1,31.1h55h0.1c5.4,0,9.7-4.4,9.7-9.7v-0.2c0-5.4-4.4-9.7-9.7-9.7H14.1c-5.4,0-9.7,4.4-9.7,9.7v0.2  C4.4,26.8,8.7,31.1,14.1,31.1L14.1,31.1z M40.8,65.8c-1,0-1.8,0.8-1.8,1.8s0.8,1.8,1.8,1.8h10.6c1,0,1.8-0.8,1.8-1.8  s-0.8-1.8-1.8-1.8H40.8z M19.1,67.5c0,1.5,1.2,2.6,2.6,2.6s2.6-1.2,2.6-2.6c0-1.5-1.2-2.6-2.6-2.6S19.1,66.1,19.1,67.5z M99.1,71.7  C99.1,82.9,90,92,78.9,92s-20.3-9.1-20.3-20.3c0-11.2,9.1-20.3,20.3-20.3S99.1,60.5,99.1,71.7z M95.6,71.7c0-9.3-7.5-16.8-16.8-16.8  s-16.8,7.5-16.8,16.8c0,9.3,7.5,16.8,16.8,16.8S95.6,81,95.6,71.7z M85.8,70h-5.2v-5.2c0-1-0.8-1.8-1.8-1.8s-1.8,0.8-1.8,1.8V70  h-5.2c-1,0-1.8,0.8-1.8,1.8s0.8,1.8,1.8,1.8h5.2v5.2c0,1,0.8,1.8,1.8,1.8s1.8-0.8,1.8-1.8v-5.2h5.2c1,0,1.8-0.8,1.8-1.8  S86.7,70,85.8,70z"></path></svg>